# xmcd
#
# Track frame offsets:
#	150
#	21835
#	49115
#	68773
#	89720
#	108203
#	135858
#	159168
#	186160
#	206458
#	229853
#	249435
#
# Disc length: 3607 seconds
#
# Revision: 0
# Processed by: cddbd v1.5.1PL0 Copyright (c) Steve Scherf et al.
# Submitted via: EasyCDDAExtractor 8.2.1.1
#
DISCID=950e150c
DTITLE=ORHAN GENCEBAY - HASRET RÜZGARI
DYEAR=1991
DGENRE=Alternative
TTITLE0=HASRET RÜZGARI
TTITLE1=ACABA NERDE
TTITLE2=ALLAHIM SEN BENI KORU
TTITLE3=NE KAYBEDERDIN
TTITLE4=GÜZELSIN
TTITLE5=NIKRIZ RÜYASI
TTITLE6=MEVSIM MEVSIM
TTITLE7=GÖZUM KESMIYOR
TTITLE8=SANA YAKISMAZ
TTITLE9=ASKIMI SAKLA
TTITLE10=YAGMUR OLSAN
TTITLE11=GÖNÜL NIKAHI
EXTD=
EXTT0=
EXTT1=
EXTT2=
EXTT3=
EXTT4=
EXTT5=
EXTT6=
EXTT7=
EXTT8=
EXTT9=
EXTT10=
EXTT11=
PLAYORDER=
